<?xml version="1.0" standalone="no"?><!DOCTYPE svg PUBLIC "-//W3C//DTD SVG 1.1//EN" "http://www.w3.org/Graphics/SVG/1.1/DTD/svg11.dtd"><svg t="1741789511210" class="icon" viewBox="0 0 1024 1024" version="1.1" xmlns="http://www.w3.org/2000/svg" p-id="38532" xmlns:xlink="http://www.w3.org/1999/xlink" width="200" height="200"><path d="M115.0464 0h793.856A115.0464 115.0464 0 0 1 1024 114.9952v794.0096A115.0464 115.0464 0 0 1 908.9024 1024H115.0464A115.0464 115.0464 0 0 1 0 909.0048V114.9952A115.0464 115.0464 0 0 1 115.0464 0M128 210.9952V813.056c0 45.824 37.1712 82.9952 83.0464 82.9952h601.856c45.9264 0 83.0976-37.1712 83.0976-82.9952V210.944c0-45.824-37.1712-82.944-83.0976-82.944H211.0464c-45.8752 0-83.0464 37.12-83.0464 82.944" fill="#272B3B" p-id="38533"></path><path d="M372.48 283.2896l128 182.3744c14.848 21.1968 15.5136 49.3056 1.536 71.168l-128 201.5744a63.8976 63.8976 0 0 1-88.2176 19.6096 63.8976 63.8976 0 0 1-19.712-88.32l104.96-165.4784-103.5776-147.456a64.1024 64.1024 0 0 1 105.0112-73.472M768 688.128v31.744a48.128 48.128 0 0 1-48.128 48.128h-159.744a48.128 48.128 0 0 1-48.128-48.128v-31.744a48.128 48.128 0 0 1 48.128-48.128h159.744a48.128 48.128 0 0 1 48.128 48.128" fill="#3B3F53" p-id="38534"></path><path d="M0 913.3056C0 974.4384 49.5616 1024 110.7456 1024h802.5088A110.7456 110.7456 0 0 0 1024 913.3056V110.6944A110.7456 110.7456 0 0 0 913.2544 0H110.7456A110.7456 110.7456 0 0 0 0 110.6944v802.6112z" fill="#4A5171" p-id="38535"></path><path d="M372.5312 283.2896l128 182.3744c14.848 21.1968 15.4624 49.3056 1.536 71.1168l-128 201.6256a63.8976 63.8976 0 0 1-88.2688 19.6096 63.8976 63.8976 0 0 1-19.712-88.32l105.0112-165.4784-103.6288-147.456a64.1024 64.1024 0 0 1 105.0112-73.472" fill="#77DD00" p-id="38536"></path><path d="M768 688.128v31.744a48.128 48.128 0 0 1-48.128 48.128h-159.744a48.128 48.128 0 0 1-48.128-48.128v-31.744a48.128 48.128 0 0 1 48.128-48.128h159.744a48.128 48.128 0 0 1 48.128 48.128" fill="#00C1DE" p-id="38537"></path></svg>