<?xml version="1.0" standalone="no"?><!DOCTYPE svg PUBLIC "-//W3C//DTD SVG 1.1//EN" "http://www.w3.org/Graphics/SVG/1.1/DTD/svg11.dtd"><svg t="1741789447528" class="icon" viewBox="0 0 1024 1024" version="1.1" xmlns="http://www.w3.org/2000/svg" p-id="30246" xmlns:xlink="http://www.w3.org/1999/xlink" width="200" height="200"><path d="M716.8 942.933333H307.2c-123.733333 0-226.133333-102.4-226.133333-226.133333V307.2c0-123.733333 102.4-226.133333 226.133333-226.133333h409.6c123.733333 0 226.133333 102.4 226.133333 226.133333v409.6c0 123.733333-102.4 226.133333-226.133333 226.133333zM123.733333 307.2" p-id="30247"></path><path d="M725.333333 960H298.666667c-128 0-234.666667-106.666667-234.666667-234.666667V298.666667C64 170.666667 170.666667 64 298.666667 64h426.666666c128 0 234.666667 106.666667 234.666667 234.666667v426.666666c0 128-106.666667 234.666667-234.666667 234.666667zM298.666667 106.666667c-106.666667 0-192 85.333333-192 192v426.666666c0 106.666667 85.333333 192 192 192h426.666666c106.666667 0 192-85.333333 192-192V298.666667c0-106.666667-85.333333-192-192-192H298.666667z" fill="#E7E7E7" p-id="30248"></path><path d="M320 136.533333h384c98.133333 0 179.2 81.066667 179.2 179.2v384c0 98.133333-81.066667 179.2-179.2 179.2h-384c-98.133333 0-179.2-81.066667-179.2-179.2v-384c-4.266667-93.866667 81.066667-179.2 179.2-179.2z" fill="#262626" p-id="30249"></path><path d="M704 917.333333h-384c-119.466667 0-213.333333-93.866667-213.333333-213.333333v-384c0-119.466667 93.866667-213.333333 213.333333-213.333333h384c119.466667 0 213.333333 93.866667 213.333333 213.333333v384c0 119.466667-93.866667 213.333333-213.333333 213.333333zM320 170.666667C238.933333 170.666667 170.666667 238.933333 170.666667 320v384C170.666667 785.066667 238.933333 853.333333 320 853.333333h384c81.066667 0 149.333333-68.266667 149.333333-149.333333v-384C853.333333 238.933333 785.066667 170.666667 704 170.666667h-384z" p-id="30250"></path><path d="M307.2 678.4c-8.533333 0-21.333333-4.266667-29.866667-12.8-17.066667-17.066667-17.066667-42.666667 0-59.733333l115.2-119.466667-115.2-115.2c-17.066667-17.066667-17.066667-42.666667 0-59.733333 17.066667-17.066667 42.666667-17.066667 59.733334 0l123.733333 128c25.6 25.6 25.6 68.266667 0 98.133333l-123.733333 128c-8.533333 8.533333-17.066667 12.8-29.866667 12.8z m93.866667-179.2z" fill="#27E5B7" p-id="30251"></path><path d="M661.333333 725.333333h-179.2c-25.6 0-42.666667-17.066667-42.666666-42.666666s17.066667-42.666667 42.666666-42.666667h179.2c25.6 0 42.666667 17.066667 42.666667 42.666667s-17.066667 42.666667-42.666667 42.666666z" fill="#27E5B7" p-id="30252"></path></svg>