<?xml version="1.0" standalone="no"?><!DOCTYPE svg PUBLIC "-//W3C//DTD SVG 1.1//EN" "http://www.w3.org/Graphics/SVG/1.1/DTD/svg11.dtd"><svg t="1741789492750" class="icon" viewBox="0 0 1024 1024" version="1.1" xmlns="http://www.w3.org/2000/svg" p-id="34352" xmlns:xlink="http://www.w3.org/1999/xlink" width="200" height="200"><path d="M51.2 51.2m102.4 0l716.8 0q102.4 0 102.4 102.4l0 716.8q0 102.4-102.4 102.4l-716.8 0q-102.4 0-102.4-102.4l0-716.8q0-102.4 102.4-102.4Z" fill="#1B2439" p-id="34353"></path><path d="M379.1872 285.3376V235.52h32.0512v49.8176c37.1712 2.4576 67.9424 12.8 91.0336 30.976 25.6512 20.6848 41.6768 52.2752 48.128 94.8224H499.0976c-4.5056-29.184-16.0256-50.432-33.9968-64.4096-14.1312-10.9568-32.0512-16.9984-53.8624-19.456v159.232c38.4512 13.312 64.768 22.4768 78.848 27.904 44.9024 22.528 67.9936 54.7328 67.9936 97.28 0 42.496-16.0256 74.752-47.4624 96-25.6 16.384-58.368 25.4976-99.3792 27.3408V788.48h-32.0512v-53.4528c-43.008-2.4576-75.6736-15.2064-98.816-37.6832-25.6-24.32-40.3456-60.16-44.8512-108.8h51.968c3.84 36.4544 14.08 62.6176 30.72 79.0016 14.1312 13.9776 34.6624 22.528 60.928 24.9344V524.1344c-23.04-8.4992-45.5168-16.384-67.9424-23.6544-46.1824-21.9136-68.608-54.1184-68.608-96.6656 0-39.4752 14.7456-69.8368 45.5168-90.5216 23.7056-16.9984 53.8624-26.7264 91.0848-27.9552z m32.0512 249.7536v157.3888c26.9312-1.8432 49.3568-8.4992 66.048-20.6848 18.5856-13.9776 28.2112-33.3824 28.2112-58.88 0-29.7984-23.04-52.8896-67.9936-69.3248-8.96-3.072-17.92-6.0928-26.2656-8.4992z m-32.0512-59.5456V327.2704c-23.0912 1.2288-41.728 7.3216-55.1936 16.9984-19.2 12.8-28.8256 32.8192-28.8256 59.5456 0 27.392 22.4256 49.2544 67.9424 66.2528l16.0768 5.4784zM604.16 696.32h184.32v51.2h-184.32z" fill="#DDE5FE" p-id="34354"></path></svg>